<mxfile host="app.diagrams.net" agent="Mozilla/5.0 (Windows NT 10.0; Win64; x64) AppleWebKit/537.36 (KHTML, like Gecko) Chrome/140.0.0.0 Safari/537.36 Edg/140.0.0.0" version="28.2.2">
  <diagram name="PÃ¡gina-1" id="iNA7On5igQIrV29uEhQd">
    <mxGraphModel dx="1293" dy="1882" grid="1" gridSize="10" guides="1" tooltips="1" connect="1" arrows="1" fold="1" page="1" pageScale="1" pageWidth="827" pageHeight="1169" math="0" shadow="0">
      <root>
        <mxCell id="0" />
        <mxCell id="1" parent="0" />
        <mxCell id="oseSZd_fNyzmnGervS-i-28" value="" style="shape=tableRow;horizontal=0;startSize=0;swimlaneHead=0;swimlaneBody=0;fillColor=none;collapsible=0;dropTarget=0;points=[[0,0.5],[1,0.5]];portConstraint=eastwest;top=0;left=0;right=0;bottom=0;" vertex="1" parent="1">
          <mxGeometry x="430" y="585" width="180" height="30" as="geometry" />
        </mxCell>
        <mxCell id="oseSZd_fNyzmnGervS-i-29" value="" style="shape=partialRectangle;connectable=0;fillColor=none;top=0;left=0;bottom=0;right=0;editable=1;overflow=hidden;whiteSpace=wrap;html=1;" vertex="1" parent="oseSZd_fNyzmnGervS-i-28">
          <mxGeometry width="30" height="30" as="geometry">
            <mxRectangle width="30" height="30" as="alternateBounds" />
          </mxGeometry>
        </mxCell>
        <mxCell id="oseSZd_fNyzmnGervS-i-34" value="Usuario" style="whiteSpace=wrap;html=1;align=center;" vertex="1" parent="1">
          <mxGeometry x="240" y="290" width="100" height="40" as="geometry" />
        </mxCell>
        <mxCell id="oseSZd_fNyzmnGervS-i-35" value="Nombre" style="ellipse;whiteSpace=wrap;html=1;align=center;" vertex="1" parent="1">
          <mxGeometry x="410" y="290" width="100" height="40" as="geometry" />
        </mxCell>
        <mxCell id="oseSZd_fNyzmnGervS-i-36" value="Apellido" style="ellipse;whiteSpace=wrap;html=1;align=center;" vertex="1" parent="1">
          <mxGeometry x="120" y="380" width="100" height="40" as="geometry" />
        </mxCell>
        <mxCell id="oseSZd_fNyzmnGervS-i-37" value="Email" style="ellipse;whiteSpace=wrap;html=1;align=center;" vertex="1" parent="1">
          <mxGeometry x="60" y="290" width="100" height="40" as="geometry" />
        </mxCell>
        <mxCell id="oseSZd_fNyzmnGervS-i-38" value="Password" style="ellipse;whiteSpace=wrap;html=1;align=center;" vertex="1" parent="1">
          <mxGeometry x="250" y="400" width="100" height="40" as="geometry" />
        </mxCell>
        <mxCell id="oseSZd_fNyzmnGervS-i-39" value="(PK)idU" style="ellipse;whiteSpace=wrap;html=1;align=center;" vertex="1" parent="1">
          <mxGeometry x="370" y="370" width="100" height="40" as="geometry" />
        </mxCell>
        <mxCell id="oseSZd_fNyzmnGervS-i-42" value="" style="endArrow=none;html=1;rounded=0;entryX=0;entryY=0.5;entryDx=0;entryDy=0;" edge="1" parent="1" target="oseSZd_fNyzmnGervS-i-34">
          <mxGeometry relative="1" as="geometry">
            <mxPoint x="160" y="309.5" as="sourcePoint" />
            <mxPoint x="320" y="309.5" as="targetPoint" />
          </mxGeometry>
        </mxCell>
        <mxCell id="oseSZd_fNyzmnGervS-i-44" value="" style="endArrow=none;html=1;rounded=0;entryX=0;entryY=1;entryDx=0;entryDy=0;exitX=1;exitY=0;exitDx=0;exitDy=0;" edge="1" parent="1" source="oseSZd_fNyzmnGervS-i-36" target="oseSZd_fNyzmnGervS-i-34">
          <mxGeometry relative="1" as="geometry">
            <mxPoint x="200" y="389.5" as="sourcePoint" />
            <mxPoint x="280" y="390" as="targetPoint" />
          </mxGeometry>
        </mxCell>
        <mxCell id="oseSZd_fNyzmnGervS-i-45" value="" style="endArrow=none;html=1;rounded=0;entryX=0;entryY=0.5;entryDx=0;entryDy=0;" edge="1" parent="1" target="oseSZd_fNyzmnGervS-i-35">
          <mxGeometry relative="1" as="geometry">
            <mxPoint x="340" y="310" as="sourcePoint" />
            <mxPoint x="414" y="310" as="targetPoint" />
          </mxGeometry>
        </mxCell>
        <mxCell id="oseSZd_fNyzmnGervS-i-46" value="" style="endArrow=none;html=1;rounded=0;entryX=0.5;entryY=0;entryDx=0;entryDy=0;" edge="1" parent="1" target="oseSZd_fNyzmnGervS-i-39">
          <mxGeometry relative="1" as="geometry">
            <mxPoint x="340" y="330" as="sourcePoint" />
            <mxPoint x="420" y="330.5" as="targetPoint" />
          </mxGeometry>
        </mxCell>
        <mxCell id="oseSZd_fNyzmnGervS-i-47" value="" style="endArrow=none;html=1;rounded=0;entryX=0.5;entryY=0;entryDx=0;entryDy=0;" edge="1" parent="1" target="oseSZd_fNyzmnGervS-i-38">
          <mxGeometry relative="1" as="geometry">
            <mxPoint x="290" y="330" as="sourcePoint" />
            <mxPoint x="370" y="330.5" as="targetPoint" />
          </mxGeometry>
        </mxCell>
        <mxCell id="oseSZd_fNyzmnGervS-i-48" value="Realiza" style="shape=rhombus;perimeter=rhombusPerimeter;whiteSpace=wrap;html=1;align=center;" vertex="1" parent="1">
          <mxGeometry x="230" y="-10" width="120" height="60" as="geometry" />
        </mxCell>
        <mxCell id="oseSZd_fNyzmnGervS-i-49" value="Rol" style="ellipse;whiteSpace=wrap;html=1;align=center;" vertex="1" parent="1">
          <mxGeometry x="370" y="220" width="100" height="40" as="geometry" />
        </mxCell>
        <mxCell id="oseSZd_fNyzmnGervS-i-50" value="" style="endArrow=none;html=1;rounded=0;entryX=0;entryY=0.5;entryDx=0;entryDy=0;exitX=0.75;exitY=0;exitDx=0;exitDy=0;" edge="1" parent="1" source="oseSZd_fNyzmnGervS-i-34" target="oseSZd_fNyzmnGervS-i-49">
          <mxGeometry relative="1" as="geometry">
            <mxPoint x="300" y="260" as="sourcePoint" />
            <mxPoint x="370" y="260" as="targetPoint" />
          </mxGeometry>
        </mxCell>
        <mxCell id="oseSZd_fNyzmnGervS-i-51" value="Compra" style="whiteSpace=wrap;html=1;align=center;" vertex="1" parent="1">
          <mxGeometry x="240" y="-260" width="100" height="40" as="geometry" />
        </mxCell>
        <mxCell id="oseSZd_fNyzmnGervS-i-53" value="(FK)idU" style="ellipse;whiteSpace=wrap;html=1;align=center;" vertex="1" parent="1">
          <mxGeometry x="240" y="-330" width="100" height="40" as="geometry" />
        </mxCell>
        <mxCell id="oseSZd_fNyzmnGervS-i-54" value="(PK)IdC" style="ellipse;whiteSpace=wrap;html=1;align=center;" vertex="1" parent="1">
          <mxGeometry x="350" y="-40" width="100" height="40" as="geometry" />
        </mxCell>
        <mxCell id="oseSZd_fNyzmnGervS-i-55" value="total" style="ellipse;whiteSpace=wrap;html=1;align=center;" vertex="1" parent="1">
          <mxGeometry x="320" y="-180" width="100" height="40" as="geometry" />
        </mxCell>
        <mxCell id="oseSZd_fNyzmnGervS-i-56" value="Fecha y hora" style="ellipse;whiteSpace=wrap;html=1;align=center;" vertex="1" parent="1">
          <mxGeometry x="110" y="-230" width="100" height="40" as="geometry" />
        </mxCell>
        <mxCell id="oseSZd_fNyzmnGervS-i-57" value="(FK)idP" style="ellipse;whiteSpace=wrap;html=1;align=center;" vertex="1" parent="1">
          <mxGeometry x="110" y="-300" width="100" height="40" as="geometry" />
        </mxCell>
        <mxCell id="oseSZd_fNyzmnGervS-i-58" value="Cantidad" style="ellipse;whiteSpace=wrap;html=1;align=center;" vertex="1" parent="1">
          <mxGeometry x="170" y="-170" width="100" height="40" as="geometry" />
        </mxCell>
        <mxCell id="oseSZd_fNyzmnGervS-i-59" value="" style="endArrow=none;html=1;rounded=0;entryX=0.5;entryY=1;entryDx=0;entryDy=0;exitX=0.5;exitY=0;exitDx=0;exitDy=0;" edge="1" parent="1" source="oseSZd_fNyzmnGervS-i-34" target="oseSZd_fNyzmnGervS-i-48">
          <mxGeometry relative="1" as="geometry">
            <mxPoint x="280" y="290" as="sourcePoint" />
            <mxPoint x="335" y="240" as="targetPoint" />
          </mxGeometry>
        </mxCell>
        <mxCell id="oseSZd_fNyzmnGervS-i-60" value="" style="endArrow=none;html=1;rounded=0;entryX=0.5;entryY=1;entryDx=0;entryDy=0;exitX=0.5;exitY=0;exitDx=0;exitDy=0;" edge="1" parent="1" source="oseSZd_fNyzmnGervS-i-48" target="oseSZd_fNyzmnGervS-i-51">
          <mxGeometry relative="1" as="geometry">
            <mxPoint x="240" y="50" as="sourcePoint" />
            <mxPoint x="295" as="targetPoint" />
          </mxGeometry>
        </mxCell>
        <mxCell id="oseSZd_fNyzmnGervS-i-61" value="(PK)IdC" style="ellipse;whiteSpace=wrap;html=1;align=center;" vertex="1" parent="1">
          <mxGeometry x="110" y="212" width="100" height="40" as="geometry" />
        </mxCell>
        <mxCell id="oseSZd_fNyzmnGervS-i-62" value="(PK)idU" style="ellipse;whiteSpace=wrap;html=1;align=center;" vertex="1" parent="1">
          <mxGeometry x="364" y="50" width="100" height="40" as="geometry" />
        </mxCell>
        <mxCell id="oseSZd_fNyzmnGervS-i-65" value="(PK)IdC" style="ellipse;whiteSpace=wrap;html=1;align=center;" vertex="1" parent="1">
          <mxGeometry x="340" y="-310" width="100" height="40" as="geometry" />
        </mxCell>
        <mxCell id="oseSZd_fNyzmnGervS-i-66" value="" style="endArrow=none;html=1;rounded=0;entryX=0.5;entryY=1;entryDx=0;entryDy=0;exitX=0;exitY=0.5;exitDx=0;exitDy=0;" edge="1" parent="1" source="oseSZd_fNyzmnGervS-i-84">
          <mxGeometry relative="1" as="geometry">
            <mxPoint x="480" y="-240" as="sourcePoint" />
            <mxPoint x="338.75" y="-240" as="targetPoint" />
          </mxGeometry>
        </mxCell>
        <mxCell id="oseSZd_fNyzmnGervS-i-64" value="Fecha y hora" style="ellipse;whiteSpace=wrap;html=1;align=center;" vertex="1" parent="1">
          <mxGeometry x="100" width="100" height="40" as="geometry" />
        </mxCell>
        <mxCell id="oseSZd_fNyzmnGervS-i-70" value="" style="endArrow=none;html=1;rounded=0;entryX=0.5;entryY=0;entryDx=0;entryDy=0;exitX=1;exitY=1;exitDx=0;exitDy=0;" edge="1" parent="1" source="oseSZd_fNyzmnGervS-i-51" target="oseSZd_fNyzmnGervS-i-55">
          <mxGeometry relative="1" as="geometry">
            <mxPoint x="350" y="10" as="sourcePoint" />
            <mxPoint x="350" y="-200" as="targetPoint" />
          </mxGeometry>
        </mxCell>
        <mxCell id="oseSZd_fNyzmnGervS-i-71" value="" style="endArrow=none;html=1;rounded=0;entryX=0;entryY=0.5;entryDx=0;entryDy=0;exitX=1;exitY=0.5;exitDx=0;exitDy=0;" edge="1" parent="1" source="oseSZd_fNyzmnGervS-i-56" target="oseSZd_fNyzmnGervS-i-51">
          <mxGeometry relative="1" as="geometry">
            <mxPoint x="238.75" y="-20" as="sourcePoint" />
            <mxPoint x="238.75" y="-230" as="targetPoint" />
          </mxGeometry>
        </mxCell>
        <mxCell id="oseSZd_fNyzmnGervS-i-72" value="" style="endArrow=none;html=1;rounded=0;exitX=0.5;exitY=0;exitDx=0;exitDy=0;entryX=0;entryY=1;entryDx=0;entryDy=0;" edge="1" parent="1" source="oseSZd_fNyzmnGervS-i-58" target="oseSZd_fNyzmnGervS-i-51">
          <mxGeometry relative="1" as="geometry">
            <mxPoint x="250" y="-20" as="sourcePoint" />
            <mxPoint x="240" y="-210" as="targetPoint" />
          </mxGeometry>
        </mxCell>
        <mxCell id="oseSZd_fNyzmnGervS-i-74" value="" style="endArrow=none;html=1;rounded=0;entryX=0.5;entryY=1;entryDx=0;entryDy=0;exitX=1;exitY=0;exitDx=0;exitDy=0;" edge="1" parent="1" source="oseSZd_fNyzmnGervS-i-51">
          <mxGeometry relative="1" as="geometry">
            <mxPoint x="348.75" y="-70" as="sourcePoint" />
            <mxPoint x="348.75" y="-280" as="targetPoint" />
          </mxGeometry>
        </mxCell>
        <mxCell id="oseSZd_fNyzmnGervS-i-75" value="" style="endArrow=none;html=1;rounded=0;entryX=0;entryY=0.5;entryDx=0;entryDy=0;exitX=1;exitY=0;exitDx=0;exitDy=0;" edge="1" parent="1" source="oseSZd_fNyzmnGervS-i-48" target="oseSZd_fNyzmnGervS-i-54">
          <mxGeometry relative="1" as="geometry">
            <mxPoint x="350" y="190" as="sourcePoint" />
            <mxPoint x="350" y="-20" as="targetPoint" />
          </mxGeometry>
        </mxCell>
        <mxCell id="oseSZd_fNyzmnGervS-i-76" value="" style="endArrow=none;html=1;rounded=0;entryX=0.5;entryY=1;entryDx=0;entryDy=0;exitX=0.5;exitY=0;exitDx=0;exitDy=0;" edge="1" parent="1" source="oseSZd_fNyzmnGervS-i-51" target="oseSZd_fNyzmnGervS-i-53">
          <mxGeometry relative="1" as="geometry">
            <mxPoint x="270" y="-80" as="sourcePoint" />
            <mxPoint x="270" y="-290" as="targetPoint" />
          </mxGeometry>
        </mxCell>
        <mxCell id="oseSZd_fNyzmnGervS-i-77" value="" style="endArrow=none;html=1;rounded=0;entryX=0.5;entryY=1;entryDx=0;entryDy=0;exitX=0;exitY=0;exitDx=0;exitDy=0;" edge="1" parent="1" source="oseSZd_fNyzmnGervS-i-51">
          <mxGeometry relative="1" as="geometry">
            <mxPoint x="210" y="-70" as="sourcePoint" />
            <mxPoint x="210" y="-280" as="targetPoint" />
          </mxGeometry>
        </mxCell>
        <mxCell id="oseSZd_fNyzmnGervS-i-78" value="" style="endArrow=none;html=1;rounded=0;entryX=1;entryY=1;entryDx=0;entryDy=0;exitX=0;exitY=0.5;exitDx=0;exitDy=0;" edge="1" parent="1" source="oseSZd_fNyzmnGervS-i-62" target="oseSZd_fNyzmnGervS-i-48">
          <mxGeometry relative="1" as="geometry">
            <mxPoint x="338.75" y="240" as="sourcePoint" />
            <mxPoint x="338.75" y="30" as="targetPoint" />
          </mxGeometry>
        </mxCell>
        <mxCell id="oseSZd_fNyzmnGervS-i-79" value="" style="endArrow=none;html=1;rounded=0;entryX=1;entryY=0.5;entryDx=0;entryDy=0;exitX=0;exitY=0.5;exitDx=0;exitDy=0;" edge="1" parent="1" source="oseSZd_fNyzmnGervS-i-48" target="oseSZd_fNyzmnGervS-i-64">
          <mxGeometry relative="1" as="geometry">
            <mxPoint x="200" y="252" as="sourcePoint" />
            <mxPoint x="200" y="42" as="targetPoint" />
          </mxGeometry>
        </mxCell>
        <mxCell id="oseSZd_fNyzmnGervS-i-80" value="Producto" style="whiteSpace=wrap;html=1;align=center;" vertex="1" parent="1">
          <mxGeometry x="727" y="-260" width="100" height="40" as="geometry" />
        </mxCell>
        <mxCell id="oseSZd_fNyzmnGervS-i-81" value="(PK)idP" style="ellipse;whiteSpace=wrap;html=1;align=center;" vertex="1" parent="1">
          <mxGeometry x="727" y="-180" width="100" height="40" as="geometry" />
        </mxCell>
        <mxCell id="oseSZd_fNyzmnGervS-i-82" value="Nombre" style="ellipse;whiteSpace=wrap;html=1;align=center;" vertex="1" parent="1">
          <mxGeometry x="727" y="-350" width="100" height="40" as="geometry" />
        </mxCell>
        <mxCell id="oseSZd_fNyzmnGervS-i-83" value="Precio unitario" style="ellipse;whiteSpace=wrap;html=1;align=center;" vertex="1" parent="1">
          <mxGeometry x="870" y="-260" width="100" height="40" as="geometry" />
        </mxCell>
        <mxCell id="oseSZd_fNyzmnGervS-i-84" value="Incluye" style="shape=rhombus;perimeter=rhombusPerimeter;whiteSpace=wrap;html=1;align=center;" vertex="1" parent="1">
          <mxGeometry x="490" y="-270" width="120" height="60" as="geometry" />
        </mxCell>
        <mxCell id="oseSZd_fNyzmnGervS-i-85" value="" style="endArrow=none;html=1;rounded=0;entryX=0.5;entryY=1;entryDx=0;entryDy=0;exitX=0;exitY=0.5;exitDx=0;exitDy=0;" edge="1" parent="1" source="oseSZd_fNyzmnGervS-i-80">
          <mxGeometry relative="1" as="geometry">
            <mxPoint x="730" y="-241" as="sourcePoint" />
            <mxPoint x="600" y="-240.62" as="targetPoint" />
          </mxGeometry>
        </mxCell>
        <mxCell id="oseSZd_fNyzmnGervS-i-86" value="(PK)idP" style="ellipse;whiteSpace=wrap;html=1;align=center;" vertex="1" parent="1">
          <mxGeometry x="500" y="-160" width="100" height="40" as="geometry" />
        </mxCell>
        <mxCell id="oseSZd_fNyzmnGervS-i-87" value="(PK)IdC" style="ellipse;whiteSpace=wrap;html=1;align=center;" vertex="1" parent="1">
          <mxGeometry x="500" y="-350" width="100" height="40" as="geometry" />
        </mxCell>
        <mxCell id="oseSZd_fNyzmnGervS-i-89" value="" style="endArrow=none;html=1;rounded=0;exitX=0.5;exitY=0;exitDx=0;exitDy=0;entryX=0.5;entryY=1;entryDx=0;entryDy=0;" edge="1" parent="1" source="oseSZd_fNyzmnGervS-i-86" target="oseSZd_fNyzmnGervS-i-84">
          <mxGeometry relative="1" as="geometry">
            <mxPoint x="549" y="-160" as="sourcePoint" />
            <mxPoint x="549" y="-210" as="targetPoint" />
          </mxGeometry>
        </mxCell>
        <mxCell id="oseSZd_fNyzmnGervS-i-90" value="" style="endArrow=none;html=1;rounded=0;entryX=0.5;entryY=1;entryDx=0;entryDy=0;exitX=0.5;exitY=0;exitDx=0;exitDy=0;" edge="1" parent="1" source="oseSZd_fNyzmnGervS-i-84" target="oseSZd_fNyzmnGervS-i-87">
          <mxGeometry relative="1" as="geometry">
            <mxPoint x="640" y="-230" as="sourcePoint" />
            <mxPoint x="640" y="-440" as="targetPoint" />
          </mxGeometry>
        </mxCell>
        <mxCell id="oseSZd_fNyzmnGervS-i-91" value="" style="endArrow=none;html=1;rounded=0;entryX=0.5;entryY=1;entryDx=0;entryDy=0;exitX=0.5;exitY=0;exitDx=0;exitDy=0;" edge="1" parent="1" source="oseSZd_fNyzmnGervS-i-80" target="oseSZd_fNyzmnGervS-i-82">
          <mxGeometry relative="1" as="geometry">
            <mxPoint x="927" y="-330" as="sourcePoint" />
            <mxPoint x="800" y="-330.62" as="targetPoint" />
          </mxGeometry>
        </mxCell>
        <mxCell id="oseSZd_fNyzmnGervS-i-92" value="" style="endArrow=none;html=1;rounded=0;entryX=1;entryY=0.5;entryDx=0;entryDy=0;exitX=0;exitY=0.5;exitDx=0;exitDy=0;" edge="1" parent="1" source="oseSZd_fNyzmnGervS-i-83" target="oseSZd_fNyzmnGervS-i-80">
          <mxGeometry relative="1" as="geometry">
            <mxPoint x="1007" y="-179.38" as="sourcePoint" />
            <mxPoint x="880" y="-180" as="targetPoint" />
          </mxGeometry>
        </mxCell>
        <mxCell id="oseSZd_fNyzmnGervS-i-93" value="" style="endArrow=none;html=1;rounded=0;entryX=0.5;entryY=1;entryDx=0;entryDy=0;exitX=0.5;exitY=0;exitDx=0;exitDy=0;" edge="1" parent="1" source="oseSZd_fNyzmnGervS-i-81" target="oseSZd_fNyzmnGervS-i-80">
          <mxGeometry relative="1" as="geometry">
            <mxPoint x="907" y="-219.38" as="sourcePoint" />
            <mxPoint x="780" y="-220" as="targetPoint" />
          </mxGeometry>
        </mxCell>
        <mxCell id="oseSZd_fNyzmnGervS-i-94" value="(1,N)" style="text;html=1;align=center;verticalAlign=middle;resizable=0;points=[];autosize=1;strokeColor=none;fillColor=none;" vertex="1" parent="1">
          <mxGeometry x="240" y="260" width="50" height="30" as="geometry" />
        </mxCell>
        <mxCell id="oseSZd_fNyzmnGervS-i-95" value="(1,N)" style="text;html=1;align=center;verticalAlign=middle;resizable=0;points=[];autosize=1;strokeColor=none;fillColor=none;" vertex="1" parent="1">
          <mxGeometry x="240" y="-220" width="50" height="30" as="geometry" />
        </mxCell>
        <mxCell id="oseSZd_fNyzmnGervS-i-96" value="(N,N)" style="text;html=1;align=center;verticalAlign=middle;resizable=0;points=[];autosize=1;strokeColor=none;fillColor=none;" vertex="1" parent="1">
          <mxGeometry x="210" y="-30" width="50" height="30" as="geometry" />
        </mxCell>
        <mxCell id="oseSZd_fNyzmnGervS-i-97" value="(1,1)" style="text;html=1;align=center;verticalAlign=middle;resizable=0;points=[];autosize=1;strokeColor=none;fillColor=none;" vertex="1" parent="1">
          <mxGeometry x="340" y="-240" width="50" height="30" as="geometry" />
        </mxCell>
        <mxCell id="oseSZd_fNyzmnGervS-i-98" value="(1,N)" style="text;html=1;align=center;verticalAlign=middle;resizable=0;points=[];autosize=1;strokeColor=none;fillColor=none;" vertex="1" parent="1">
          <mxGeometry x="677" y="-240" width="50" height="30" as="geometry" />
        </mxCell>
      </root>
    </mxGraphModel>
  </diagram>
</mxfile>
